<?xml version="1.0" encoding="utf-8"?>
<!-- Generator: Adobe Illustrator 22.1.0, SVG Export Plug-In . SVG Version: 6.00 Build 0)  -->
<svg version="1.1" id="Слой_1" xmlns="http://www.w3.org/2000/svg" xmlns:xlink="http://www.w3.org/1999/xlink" x="0px" y="0px"
	 viewBox="0 0 36 36" style="enable-background:new 0 0 36 36;" xml:space="preserve">
<style type="text/css">
	.st0{display:none;}
	.st1{display:inline;fill:#999999;}
	.st2{display:inline;}
	.st3{fill:#999999;}
	.st4{fill:#FFFFFF;}
	.st5{fill:#4F4F4F;}
</style>
<g class="st0">
	<circle class="st1" cx="25.4" cy="17.9" r="1.6"/>
	<path class="st1" d="M12.2,17.9c0,0.9-0.7,1.6-1.6,1.6c-0.9,0-1.6-0.7-1.6-1.6s0.7-1.6,1.6-1.6S12.2,17,12.2,17.9z"/>
	<circle class="st1" cx="12.3" cy="13.7" r="1.6"/>
	<circle class="st1" cx="23.8" cy="13.7" r="1.6"/>
	<circle class="st1" cx="15.9" cy="11.4" r="1.6"/>
	<circle class="st1" cx="20.2" cy="11.4" r="1.6"/>
	<path class="st1" d="M23.1,30H12.9c-0.9,0-1.6-0.6-1.6-1.4V25c0-0.8,0.7-1.4,1.6-1.4h10.3c0.9,0,1.6,0.6,1.6,1.4v3.7
		C24.7,29.4,24,30,23.1,30z M12.9,24.4c-0.4,0-0.7,0.2-0.7,0.5v3.7c0,0.3,0.3,0.5,0.7,0.5h10.3c0.4,0,0.7-0.2,0.7-0.5V25
		c0-0.3-0.3-0.5-0.7-0.5H12.9V24.4z"/>
	<g class="st2">
		<path class="st3" d="M21,18c0,1.7-1.3,3-3,3s-3-1.3-3-3s1.3-3,3-3S21,16.3,21,18z"/>
		<path class="st3" d="M19.5,18c4.2,3.1,3.3,3.7,3.3,3.7s-0.4,1-4.5-2.1C13.8,16.2,6.2,10,6.5,9.5C6.8,9.1,15,14.7,19.5,18z"/>
	</g>
	<path class="st1" d="M18,36C8.1,36,0,27.9,0,18S8.1,0,18,0s18,8.1,18,18S27.9,36,18,36z M18,2.8C9.6,2.8,2.8,9.6,2.8,18
		S9.6,33.2,18,33.2S33.2,26.4,33.2,18S26.4,2.8,18,2.8z"/>
	<g class="st2">
		<rect x="17.5" y="1.1" class="st3" width="0.8" height="4.9"/>
		<rect x="2.4" y="22.5" transform="matrix(0.956 -0.2934 0.2934 0.956 -6.5094 2.4298)" class="st3" width="4.9" height="0.8"/>
		
			<rect x="30.7" y="20.5" transform="matrix(0.2936 -0.9559 0.9559 0.2936 6.243704e-02 45.9574)" class="st3" width="0.8" height="4.9"/>
		<rect x="17.5" y="1.1" class="st3" width="0.8" height="4.9"/>
		<rect x="2.4" y="22.5" transform="matrix(0.956 -0.2934 0.2934 0.956 -6.5094 2.4298)" class="st3" width="4.9" height="0.8"/>
		
			<rect x="30.7" y="20.5" transform="matrix(0.2936 -0.9559 0.9559 0.2936 6.243704e-02 45.9574)" class="st3" width="0.8" height="4.9"/>
		<rect x="24" y="5.9" transform="matrix(0.5961 -0.8029 0.8029 0.5961 5.6156 23.7675)" class="st3" width="4.9" height="0.8"/>
		<rect x="4" y="11.7" transform="matrix(0.3345 -0.9424 0.9424 0.3345 -10.3988 13.5387)" class="st3" width="0.8" height="4.9"/>
		<rect x="24" y="5.9" transform="matrix(0.5961 -0.8029 0.8029 0.5961 5.6156 23.7675)" class="st3" width="4.9" height="0.8"/>
		<rect x="4" y="11.7" transform="matrix(0.3345 -0.9424 0.9424 0.3345 -10.3988 13.5387)" class="st3" width="0.8" height="4.9"/>
		<rect x="9" y="3.9" transform="matrix(0.8025 -0.5966 0.5966 0.8025 -1.9175 6.8664)" class="st3" width="0.8" height="4.9"/>
		
			<rect x="28.9" y="13.7" transform="matrix(0.9422 -0.3351 0.3351 0.9422 -2.9145 11.3211)" class="st3" width="4.9" height="0.8"/>
		<rect x="9" y="3.9" transform="matrix(0.8025 -0.5966 0.5966 0.8025 -1.9175 6.8664)" class="st3" width="0.8" height="4.9"/>
		
			<rect x="28.9" y="13.7" transform="matrix(0.9422 -0.3351 0.3351 0.9422 -2.9145 11.3211)" class="st3" width="4.9" height="0.8"/>
	</g>
</g>
<g>
	<g>
		<circle class="st4" cx="18" cy="18" r="18"/>
	</g>
	<path class="st5" d="M18,25.2l-7.5-5.9l-1.7,1.3l9.2,7.2l9.2-7.2l-1.7-1.3L18,25.2z M18,22.6l7.5-5.9l1.7-1.3L18,8.2l-9.2,7.2
		l1.7,1.3L18,22.6z"/>
</g>
</svg>
